<?xml version="1.0" encoding="utf-8"?>
<!-- Svg Vector Icons : http://www.onlinewebfonts.com/icon -->
<!DOCTYPE svg PUBLIC "-//W3C//DTD SVG 1.1//EN" "http://www.w3.org/Graphics/SVG/1.1/DTD/svg11.dtd">
<svg version="1.1" xmlns="http://www.w3.org/2000/svg" xmlns:xlink="http://www.w3.org/1999/xlink" x="0px" y="0px" viewBox="0 0 256 256" enable-background="new 0 0 256 256" xml:space="preserve">
<metadata> Svg Vector Icons : http://www.onlinewebfonts.com/icon </metadata>
<g> <path fill="#000000" d="M115.4,128L115.4,128c0,7.2,5.6,13,12.6,13c7,0,12.6-5.8,12.6-13l0,0l0,0c0-7.2-5.6-13-12.6-13 C121,115,115.4,120.8,115.4,128C115.4,135.2,115.4,128,115.4,128z"/> <path fill="#000000" d="M71.8,128L71.8,128c0,7.2,5.6,13,12.6,13c7,0,12.6-5.8,12.6-13l0,0l0,0c0-7.2-5.6-13-12.6-13 C77.4,115,71.8,120.8,71.8,128L71.8,128z"/> <path fill="#000000" d="M159.1,128L159.1,128c0,7.2,5.6,13,12.6,13c7,0,12.6-5.8,12.6-13l0,0l0,0c0-7.2-5.6-13-12.6-13 C164.7,115,159.1,120.8,159.1,128L159.1,128z"/> <path fill="#000000" d="M229.9,231.8l-8.7-33c-0.4-1.6,0-3.1,0.8-4.3c14.9-18.5,24-41.7,24-66.9C246,67,193.3,17.5,128,17.5 C62.7,17.5,10,67,10,128c0,61,52.7,110.5,118,110.5c22.8,0,44.4-6.3,62.5-16.5c1.6-0.8,3.1-0.8,4.7,0l27.9,16.1 c0.4,0.4,0.8,0.4,1.2,0.4c0.4,0,0.8,0,0.8,0c1.6,0,3.5-0.8,4.3-2.4l0,0c0.4-0.8,0.8-2,0.4-2.8C230.3,232.6,230.3,232.2,229.9,231.8 L229.9,231.8z M216.9,222.4c-0.4,0.4-0.8,0.4-1.2,0l-18.5-10.6c-3.1-2-6.7-1.6-9.8,0c-18.9,11-37.4,16.9-59.8,16.9 c-59.4,0-108.2-45.2-108.2-100.7S68.2,27.3,128,27.3c59.8,0,108.6,45.2,108.6,100.7c0,24.8-8.3,43.7-23.2,62.1 c-2,2.4-2.8,5.5-2,8.7l6.3,22.8C217.3,222,217.3,222.4,216.9,222.4L216.9,222.4z"/></g>
</svg>